<svg xmlns="http://www.w3.org/2000/svg" version="1.1" xmlns:xlink="http://www.w3.org/1999/xlink" xmlns:svgjs="http://svgjs.dev/svgjs" width="200" height="200" viewBox="0 0 1500 1500"><g transform="matrix(1,0,0,1,-0.21332335329316265,-0.21332335329350371)"><svg viewBox="0 0 334 334" data-background-color="#000000" preserveAspectRatio="xMidYMid meet" height="1500" width="1500" xmlns="http://www.w3.org/2000/svg" xmlns:xlink="http://www.w3.org/1999/xlink"><g id="tight-bounds" transform="matrix(1,0,0,1,0.04749999999998522,0.04750000000001364)"><svg viewBox="0 0 333.90454557049503 333.90454557049503" height="333.90454557049503" width="333.90454557049503"><rect width="333.905" height="333.905" fill="url(#0216244f-8803-40b0-a609-2a0a69f14aad)" mask="url(#497d71d6-53be-4bf3-ae9b-16427fe1da1e)" data-fill-palette-color="tertiary"></rect><g><svg></svg></g><g><svg viewBox="0 0 333.90454557049503 333.90454557049503" height="333.90454557049503" width="333.90454557049503"><g><path d="M0 166.952c0-92.205 74.747-166.952 166.952-166.952 92.205 0 166.952 74.747 166.953 166.952 0 92.205-74.747 166.952-166.953 166.953-92.205 0-166.952-74.747-166.952-166.953zM166.952 316.63c82.665 0 149.677-67.013 149.678-149.678 0-82.665-67.013-149.677-149.678-149.677-82.665 0-149.677 67.013-149.677 149.677 0 82.665 67.013 149.677 149.677 149.678z" data-fill-palette-color="tertiary" fill="url(#0216244f-8803-40b0-a609-2a0a69f14aad)" stroke="transparent"></path><ellipse rx="160.27418187383762" ry="160.27418187383762" cx="166.95227278524752" cy="166.95227278524752" fill="url(#0216244f-8803-40b0-a609-2a0a69f14aad)" stroke="transparent" stroke-width="0" fill-opacity="1" data-fill-palette-color="tertiary"></ellipse></g><g transform="matrix(1,0,0,1,95.39736866926664,71.17305217166896)"><svg viewBox="0 0 143.10980823196175 191.55844122715712" height="191.55844122715712" width="143.10980823196175"><g><svg viewBox="0 0 143.10980823196175 191.55844122715712" height="191.55844122715712" width="143.10980823196175"><g><svg viewBox="0 0 143.10980823196175 191.55844122715712" height="191.55844122715712" width="143.10980823196175"><g><svg viewBox="0 0 143.10980823196175 191.55844122715712" height="191.55844122715712" width="143.10980823196175"><g id="textblocktransform"><svg viewBox="0 0 143.10980823196175 191.55844122715712" height="191.55844122715712" width="143.10980823196175" id="textblock"><g><svg viewBox="0 0 143.10980823196175 191.55844122715712" height="191.55844122715712" width="143.10980823196175"><g transform="matrix(1,0,0,1,0,0)"><svg width="143.10980823196175" viewBox="2.3 -25.35 19.2 25.700000000000003" height="191.55844122715712" data-palette-color="#000000"><path d="M2.3-6.45L5.9-7.65Q6.2-6.15 7-5.18 7.8-4.2 9.08-3.7 10.35-3.2 12.05-3.2L12.05-3.2Q14.7-3.2 16.07-4.23 17.45-5.25 17.45-6.8L17.45-6.8Q17.45-8.1 16.63-8.9 15.8-9.7 14.45-10.23 13.1-10.75 11.45-11.15L11.45-11.15Q10.15-11.45 8.65-11.88 7.15-12.3 5.8-13.05 4.45-13.8 3.6-15 2.75-16.2 2.75-18.15L2.75-18.15Q2.75-20.3 3.93-21.93 5.1-23.55 7.18-24.45 9.25-25.35 11.95-25.35L11.95-25.35Q15.05-25.35 17.48-24 19.9-22.65 20.85-19.8L20.85-19.8 17.35-18.6Q17-19.9 16.07-20.6 15.15-21.3 14.03-21.55 12.9-21.8 11.8-21.8L11.8-21.8Q9.55-21.8 8.18-20.93 6.8-20.05 6.8-18.3L6.8-18.3Q6.8-17.35 7.25-16.73 7.7-16.1 8.5-15.7 9.3-15.3 10.4-15.03 11.5-14.75 12.8-14.4L12.8-14.4Q14.25-14.05 15.75-13.53 17.25-13 18.55-12.18 19.85-11.35 20.68-10.08 21.5-8.8 21.5-6.9L21.5-6.9Q21.5-4.7 20.3-3.08 19.1-1.45 16.98-0.55 14.85 0.35 12.05 0.35L12.05 0.35Q8.2 0.35 5.68-1.38 3.15-3.1 2.3-6.45L2.3-6.45Z" opacity="1" transform="matrix(1,0,0,1,0,0)" fill="#000000" class="wordmark-text-0" data-fill-palette-color="quaternary" id="text-0"></path></svg></g></svg></g></svg></g></svg></g><g></g></svg></g></svg></g></svg></g></svg></g><defs></defs><mask id="497d71d6-53be-4bf3-ae9b-16427fe1da1e"><g id="SvgjsG1420"><svg viewBox="0 0 333.90454557049503 333.90454557049503" height="333.90454557049503" width="333.90454557049503"><g><svg></svg></g><g><svg viewBox="0 0 333.90454557049503 333.90454557049503" height="333.90454557049503" width="333.90454557049503"><g><path d="M0 166.952c0-92.205 74.747-166.952 166.952-166.952 92.205 0 166.952 74.747 166.953 166.952 0 92.205-74.747 166.952-166.953 166.953-92.205 0-166.952-74.747-166.952-166.953zM166.952 316.63c82.665 0 149.677-67.013 149.678-149.678 0-82.665-67.013-149.677-149.678-149.677-82.665 0-149.677 67.013-149.677 149.677 0 82.665 67.013 149.677 149.677 149.678z" fill="white" stroke="transparent"></path><ellipse rx="160.27418187383762" ry="160.27418187383762" cx="166.95227278524752" cy="166.95227278524752" fill="white" stroke="transparent" stroke-width="0" fill-opacity="1"></ellipse></g><g transform="matrix(1,0,0,1,95.39736866926664,71.17305217166896)"><svg viewBox="0 0 143.10980823196175 191.55844122715712" height="191.55844122715712" width="143.10980823196175"><g><svg viewBox="0 0 143.10980823196175 191.55844122715712" height="191.55844122715712" width="143.10980823196175"><g><svg viewBox="0 0 143.10980823196175 191.55844122715712" height="191.55844122715712" width="143.10980823196175"><g><svg viewBox="0 0 143.10980823196175 191.55844122715712" height="191.55844122715712" width="143.10980823196175"><g id="SvgjsG1419"><svg viewBox="0 0 143.10980823196175 191.55844122715712" height="191.55844122715712" width="143.10980823196175" id="SvgjsSvg1418"><g><svg viewBox="0 0 143.10980823196175 191.55844122715712" height="191.55844122715712" width="143.10980823196175"><g transform="matrix(1,0,0,1,0,0)"><svg width="143.10980823196175" viewBox="2.3 -25.35 19.2 25.700000000000003" height="191.55844122715712" data-palette-color="#000000"><path d="M2.3-6.45L5.9-7.65Q6.2-6.15 7-5.18 7.8-4.2 9.08-3.7 10.35-3.2 12.05-3.2L12.05-3.2Q14.7-3.2 16.07-4.23 17.45-5.25 17.45-6.8L17.45-6.8Q17.45-8.1 16.63-8.9 15.8-9.7 14.45-10.23 13.1-10.75 11.45-11.15L11.45-11.15Q10.15-11.45 8.65-11.88 7.15-12.3 5.8-13.05 4.45-13.8 3.6-15 2.75-16.2 2.75-18.15L2.75-18.15Q2.75-20.3 3.93-21.93 5.1-23.55 7.18-24.45 9.25-25.35 11.95-25.35L11.95-25.35Q15.05-25.35 17.48-24 19.9-22.65 20.85-19.8L20.85-19.8 17.35-18.6Q17-19.9 16.07-20.6 15.15-21.3 14.03-21.55 12.9-21.8 11.8-21.8L11.8-21.8Q9.55-21.8 8.18-20.93 6.8-20.05 6.8-18.3L6.8-18.3Q6.8-17.35 7.25-16.73 7.7-16.1 8.5-15.7 9.3-15.3 10.4-15.03 11.5-14.75 12.8-14.4L12.8-14.4Q14.25-14.05 15.75-13.53 17.25-13 18.55-12.18 19.85-11.35 20.68-10.08 21.5-8.8 21.5-6.9L21.5-6.9Q21.5-4.7 20.3-3.08 19.1-1.45 16.98-0.55 14.85 0.35 12.05 0.35L12.05 0.35Q8.2 0.35 5.68-1.38 3.15-3.1 2.3-6.45L2.3-6.45Z" opacity="1" transform="matrix(1,0,0,1,0,0)" fill="black" class="wordmark-text-0" id="SvgjsPath1417"></path></svg></g></svg></g></svg></g></svg></g><g></g></svg></g></svg></g></svg></g></svg></g><defs><mask></mask></defs></svg><rect width="333.90454557049503" height="333.90454557049503" fill="black" stroke="none" visibility="hidden"></rect></g></mask><linearGradient x1="0" x2="1" y1="0.578" y2="0.595" id="0216244f-8803-40b0-a609-2a0a69f14aad"><stop stop-color="#6ee2f5" offset="0"></stop><stop stop-color="#6454f0" offset="1"></stop></linearGradient></svg><rect width="333.90454557049503" height="333.90454557049503" fill="none" stroke="none" visibility="hidden"></rect></g></svg></g></svg>